Coordinates
version=1
nRows=26
nColumns=11
inDegrees=yes

Units are S.I. units (second, meters, Newtons, ...)
Angles are in degrees.

endheader
time	pelvis_tilt	pelvis_tx	pelvis_ty	hip_flexion_r	knee_angle_r	ankle_angle_r	hip_flexion_l	knee_angle_l	ankle_angle_l	lumbar_extension
      1.43333333	    -26.35386546	      0.15684984	      0.99882189	     24.97338743	     -0.18398173	     -0.23855667	     28.77263899	     -4.50116970	     -0.57054753	     -8.62669689
      1.44166667	    -26.32085369	      0.15657440	      0.99885729	     24.95018735	     -0.17044353	     -0.25436836	     28.76435738	     -4.50812115	     -0.58593001	     -8.58892041
      1.45000000	    -26.27568361	      0.15636202	      0.99891570	     24.91379333	     -0.16335914	     -0.26741569	     28.74305172	     -4.52373364	     -0.59415099	     -8.54418220
      1.45833333	    -26.21864234	      0.15620875	      0.99899747	     24.86457642	     -0.16221597	     -0.27839141	     28.70734576	     -4.54597231	     -0.59811764	     -8.49404824
      1.46666667	    -26.15045559	      0.15611195	      0.99910201	     24.80301551	     -0.16555718	     -0.28789213	     28.65711291	     -4.57200718	     -0.60094226	     -8.43983426
      1.47500000	    -26.07209153	      0.15606356	      0.99923050	     24.72969573	     -0.17161906	     -0.29625651	     28.59292152	     -4.59869853	     -0.60529112	     -8.38220372
      1.48333333	    -25.98438856	      0.15604830	      0.99938573	     24.64526955	     -0.17899859	     -0.30346908	     28.51556920	     -4.62317544	     -0.61288178	     -8.32090080
      1.49166667	    -25.88781407	      0.15605143	      0.99956809	     24.55038294	     -0.18718862	     -0.30913667	     28.42588809	     -4.64336264	     -0.62422103	     -8.25487538
      1.50000000	    -25.78265698	      0.15606953	      0.99977349	     24.44564443	     -0.19678405	     -0.31251232	     28.32453302	     -4.65848239	     -0.63861521	     -8.18273973
      1.50833333	    -25.66937034	      0.15611422	      0.99999616	     24.33163740	     -0.20924998	     -0.31255054	     28.21175877	     -4.66936936	     -0.65438546	     -8.10326520
      1.51666667	    -25.54848486	      0.15620623	      1.00023197	     24.20888939	     -0.22631549	     -0.30799374	     28.08754881	     -4.67828786	     -0.66917778	     -8.01567394
      1.52500000	    -25.42007670	      0.15636416	      1.00047687	     24.07773967	     -0.24920837	     -0.29748715	     27.95210946	     -4.68821052	     -0.68031219	     -7.91968512
      1.53333333	    -25.28345905	      0.15659417	      1.00072197	     23.93812890	     -0.27800178	     -0.27971655	     27.80621932	     -4.70189325	     -0.68516890	     -7.81544366
      1.54166667	    -25.13765400	      0.15688483	      1.00095642	     23.78938502	     -0.31131463	     -0.25357393	     27.65099790	     -4.72114883	     -0.68158472	     -7.70344673
      1.55000000	    -24.98230957	      0.15721011	      1.00117916	     23.63010683	     -0.34649223	     -0.21834686	     27.48728239	     -4.74644658	     -0.66817982	     -7.58447467
      1.55833333	    -24.81801234	      0.15754253	      1.00140014	     23.45837873	     -0.38012777	     -0.17388859	     27.31516918	     -4.77673910	     -0.64453342	     -7.45949727
      1.56666667	    -24.64557618	      0.15787190	      1.00162439	     23.27239559	     -0.40859360	     -0.12071121	     27.13389752	     -4.80951807	     -0.61119230	     -7.32952799
      1.57500000	    -24.46524593	      0.15821305	      1.00184129	     23.07091269	     -0.42841009	     -0.05997311	     26.94184661	     -4.84119338	     -0.56955747	     -7.19538249
      1.58333333	    -24.27673223	      0.15859231	      1.00203658	     22.85290106	     -0.43653667	      0.00663321	     26.73660456	     -4.86768742	     -0.52168302	     -7.05735768
      1.59166667	    -24.07973966	      0.15902696	      1.00221146	     22.61678084	     -0.43069216	      0.07706508	     26.51523290	     -4.88498822	     -0.46997174	     -6.91497314
      1.60000000	    -23.87416225	      0.15951871	      1.00238295	     22.36020849	     -0.40965170	      0.14915569	     26.27460802	     -4.88954461	     -0.41674650	     -6.76694279
      1.60833333	    -23.65973030	      0.16006616	      1.00256807	     22.08083083	     -0.37333711	      0.22086193	     26.01166794	     -4.87853280	     -0.36375944	     -6.61145020
      1.61666667	    -23.43563041	      0.16068208	      1.00277206	     21.77737170	     -0.32260216	      0.29051148	     25.72366475	     -4.85002015	     -0.31181660	     -6.44668541
      1.62500000	    -23.20067449	      0.16139326	      1.00298721	     21.45005744	     -0.25884935	      0.35701769	     25.40861205	     -4.80301960	     -0.26068835	     -6.27148645
      1.63333333	    -22.95395951	      0.16221840	      1.00320245	     21.10016003	     -0.18374659	      0.42002905	     25.06585007	     -4.73746757	     -0.20934544	     -6.08587185
      1.64166667	    -22.69541519	      0.16314793	      1.00342015	     20.72937054	     -0.09924698	      0.47998871	     24.69636162	     -4.65423446	     -0.15643734	     -5.89131612
